<?xml version="1.0" encoding="utf-8"?><svg xmlns="http://www.w3.org/2000/svg" xmlns:xlink="http://www.w3.org/1999/xlink"><symbol viewBox="0 0 40 40" id="basket" xmlns="http://www.w3.org/2000/svg"><path fill-rule="evenodd" clip-rule="evenodd" d="M29.748 16.118l-2.743-4.938 2.728 4.946.015-.008zm-19.522 11.97c0 .93.756 1.687 1.687 1.687h16.176a1.69 1.69 0 001.687-1.687V16.4a.892.892 0 00-.043-.274l-2.728-4.946a1.853 1.853 0 00-1.621-.955H14.617c-.673 0-1.294.366-1.62.954l-2.745 4.938.016.009a.892.892 0 00-.042.274v11.688zM25.44 12.045a.063.063 0 00-.056-.032h-4.49v3.492h6.468l-1.922-3.46zm-10.881.002l-1.92 3.458h6.468v-3.492h-4.49a.067.067 0 00-.058.034zm13.429 5.247H12.014v10.693h15.974V17.294z"/></symbol></svg>